<svg xmlns="http://www.w3.org/2000/svg" viewBox="133.5 88.5 229.5 393.5"><path d="M335.2 97.4C350 101.9 362.2 105.9 362.5 106.2 362.8 106.4 352.7 116 340.1 127.3L317.2 148 316.6 156.3C316.2 160.8 314.8 185.2 313.5 210.5 310.7 262.4 306.1 345.7 305.7 351 305.5 354 301.7 347 279.3 302.3L253 250 256.5 194.8C258.4 164.4 260.3 137.2 260.7 134.4L261.5 129.3 283.5 109.2C295.6 98.2 306.2 89.1 307 89.1 307.8 89.1 320.5 92.8 335.2 97.4zM193.2 206.9C208 211.6 232.3 218.9 235.3 219.6 236.8 219.9 238.2 220.6 238.5 221 238.8 221.4 229 230.7 216.7 241.5 204.5 252.3 194.1 261.8 193.6 262.5 193 263.3 194.5 267.5 198.2 275.1 201.3 281.4 219.6 318.7 239 358 290.4 462.3 299.8 481.5 299.5 481.8 299.3 482 290.5 479.3 279.9 476 269.2 472.6 255.8 468.4 250.2 466.7L239.8 463.5 234 451.5C230.8 444.9 221.1 425.1 212.5 407.5 203.8 389.9 192.8 367.4 188 357.5 183.2 347.6 172.2 325.1 163.5 307.5 154.9 289.9 144.7 269.1 140.9 261.3L134 247 138.3 243.2C167 216.8 181.6 204 182.7 204 183.4 204 188.1 205.3 193.2 206.9z"/></svg>