<?xml version="1.0" encoding="UTF-8"?>
<svg xmlns="http://www.w3.org/2000/svg" viewBox="0 0 556 571" fill="#000">
  <!-- Right arm of V -->
  <path transform="translate(0,571) scale(0.1,-0.1)" d="M3352 4736 c148 -45 270 -85 273 -88 3 -2 -98 -98 -224 -211 l-229 -207 -6 -83 c-4 -45 -18 -289 -31 -542 -28 -519 -74 -1352 -78 -1405 -2 -30 -40 40 -264 487 l-263 523 35 552 c19 304 38 576 42 604 l8 51 220 201 c121 110 227 201 235 201 8 0 135 -37 282 -83z"/>

  <!-- Left arm of V -->
  <path transform="translate(0,571) scale(0.1,-0.1)" d="M1932 3641 c148 -47 391 -120 421 -127 15 -3 29 -10 32 -14 3 -4 -95 -97 -218 -205 -122 -108 -226 -203 -231 -210 -6 -8 9 -50 46 -126 31 -63 214 -436 408 -829 514 -1043 608 -1235 605 -1238 -2 -2 -90 25 -196 58 -107 34 -241 76 -297 93 l-104 32 -58 120 c-32 66 -129 264 -215 440 -87 176 -197 401 -245 500 -48 99 -158 324 -245 500 -86 176 -188 384 -226 462 l-69 143 43 38 c287 264 433 392 444 392 7 0 54 -13 105 -29z"/>
</svg>
